<svg xmlns="http://www.w3.org/2000/svg" viewBox="0 0 500 500"><defs><style>.cls-1{fill:#191a23;}.cls-2{fill:#eaeaea;}</style></defs><g id="Capa_2" data-name="Capa 2"><g id="Capa_1-2" data-name="Capa 1"><circle class="cls-1" cx="250" cy="250" r="250"/></g><g id="Capa_2-2" data-name="Capa 2"><path class="cls-2" d="M378.84,352.19c-24.72-23.7-49.59-47.27-77.68-67.06-19.89-14-40.76-25.8-66-26.39a53.24,53.24,0,0,0-25,5.57c-4.53,2.21-5.29,3.89-1.21,7.88,18.82,18.48,37.28,37.32,55.92,56q34.67,34.72,69.42,69.38c13.65,13.59,33.08,13.85,46.24.78C393.36,385.56,392.81,365.59,378.84,352.19Z"/><path class="cls-2" d="M181.81,264.24c-31.54-17.54-70.91,6.22-71.36,43.18-.13,10.83,0,21.67,0,32.5v22.56l0,0c0,5.47,0,10.93.32,16.38.69,13.38,7.58,23,20.61,27.24,22.7,7.45,42.45-6.74,42.68-30.71.21-22.06.05-44.13.07-66.19,0-13.19,2.32-25.89,10.23-36.73C187.86,267.72,185.56,266.33,181.81,264.24Z"/><path class="cls-2" d="M174.12,195.13V128.28c0-.93,0-1.86,0-2.78-.13-19.07-13.18-33.2-31-33.63C125.5,91.44,111,105.29,110.59,124c-.45,23.81-.81,47.68.13,71.47,1.37,35,39.55,56.34,70.58,40.24,4.17-2.17,6.56-3.74,2.82-8.81A46.41,46.41,0,0,1,180.4,221h0C174,211.19,174.12,195.13,174.12,195.13Z"/><path class="cls-2" d="M380.87,102c-11.48-12.39-29.93-13.65-43.25-2.61-5.05,4.2-9.53,9.1-14.19,13.76-38,38.05-75.9,76.21-114.11,114-4.82,4.78-3.41,6.4,1.51,8.71a53.81,53.81,0,0,0,24.34,5.15c17-.13,35.37-6.36,55.32-19.18C324,200.34,352.69,173,381,145.36,393.19,133.46,392.51,114.56,380.87,102Z"/></g></g></svg>